<svg xmlns="http://www.w3.org/2000/svg" xmlns:xlink="http://www.w3.org/1999/xlink" width="428" height="221" fill="#000" fill-opacity="1" stroke="#000" stroke-dasharray="none" stroke-dashoffset="0" stroke-linecap="square" stroke-linejoin="miter" stroke-miterlimit="10" stroke-opacity="1" stroke-width="1" color-interpolation="auto" color-rendering="auto" font-family="'Dialog'" font-size="12" font-style="normal" font-weight="normal" image-rendering="auto" shape-rendering="auto" text-rendering="auto"><g><defs id="defs1"><clipPath id="clipPath1" clipPathUnits="userSpaceOnUse"><path d="M0 0 L428 0 L428 221 L0 221 L0 0 Z"/></clipPath><clipPath id="clipPath2" clipPathUnits="userSpaceOnUse"><path d="M352 144 L780 144 L780 365 L352 365 L352 144 Z"/></clipPath></defs><g fill="#fff" stroke="#fff" shape-rendering="geometricPrecision" text-rendering="geometricPrecision" transform="translate(-352,-144)"><rect width="428" height="221" x="352" y="144" stroke="none" clip-path="url(#clipPath2)"/></g><g fill="#D8D8FF" stroke="#D8D8FF" shape-rendering="geometricPrecision" text-rendering="geometricPrecision" transform="matrix(1,0,0,1,-352,-144)"><rect width="80" height="100" x="667.742" y="249.5" stroke="none" clip-path="url(#clipPath2)"/></g><g stroke-linecap="butt" stroke-miterlimit="1.45" font-family="sans-serif" shape-rendering="geometricPrecision" text-rendering="geometricPrecision" transform="matrix(1,0,0,1,-352,-144)"><text x="680.059" y="340.863" stroke="none" clip-path="url(#clipPath2)" xml:space="preserve">Machine 4</text><rect width="80" height="100" x="667.742" y="249.5" fill="none" stroke-dasharray="6 2" clip-path="url(#clipPath2)"/></g><g fill="#D8D8FF" stroke="#D8D8FF" shape-rendering="geometricPrecision" text-rendering="geometricPrecision" transform="matrix(1,0,0,1,-352,-144)"><rect width="80" height="100" x="567.742" y="249.5" stroke="none" clip-path="url(#clipPath2)"/></g><g stroke-linecap="butt" stroke-miterlimit="1.45" font-family="sans-serif" shape-rendering="geometricPrecision" text-rendering="geometricPrecision" transform="matrix(1,0,0,1,-352,-144)"><text x="580.059" y="340.863" stroke="none" clip-path="url(#clipPath2)" xml:space="preserve">Machine 3</text><rect width="80" height="100" x="567.742" y="249.5" fill="none" stroke-dasharray="6 2" clip-path="url(#clipPath2)"/></g><g fill="#D8D8FF" stroke="#D8D8FF" shape-rendering="geometricPrecision" text-rendering="geometricPrecision" transform="matrix(1,0,0,1,-352,-144)"><rect width="80" height="100" x="467.742" y="249.5" stroke="none" clip-path="url(#clipPath2)"/></g><g stroke-linecap="butt" stroke-miterlimit="1.45" font-family="sans-serif" shape-rendering="geometricPrecision" text-rendering="geometricPrecision" transform="matrix(1,0,0,1,-352,-144)"><text x="480.059" y="340.863" stroke="none" clip-path="url(#clipPath2)" xml:space="preserve">Machine 2</text><rect width="80" height="100" x="467.742" y="249.5" fill="none" stroke-dasharray="6 2" clip-path="url(#clipPath2)"/></g><g fill="#D8D8FF" stroke="#D8D8FF" shape-rendering="geometricPrecision" text-rendering="geometricPrecision" transform="matrix(1,0,0,1,-352,-144)"><rect width="80" height="100" x="367.742" y="249.5" stroke="none" clip-path="url(#clipPath2)"/></g><g stroke-linecap="butt" stroke-miterlimit="1.45" font-family="sans-serif" shape-rendering="geometricPrecision" text-rendering="geometricPrecision" transform="matrix(1,0,0,1,-352,-144)"><text x="380.059" y="340.863" stroke="none" clip-path="url(#clipPath2)" xml:space="preserve">Machine 1</text><rect width="80" height="100" x="367.742" y="249.5" fill="none" stroke-dasharray="6 2" clip-path="url(#clipPath2)"/></g><g fill="#F93" stroke="#F93" shape-rendering="geometricPrecision" text-rendering="geometricPrecision" transform="matrix(1,0,0,1,-352,-144)"><rect width="30" height="10" x="374.16" y="281.5" stroke="none" clip-path="url(#clipPath2)" rx="4" ry="4"/></g><g stroke-linecap="butt" stroke-miterlimit="1.45" shape-rendering="geometricPrecision" text-rendering="geometricPrecision" transform="matrix(1,0,0,1,-352,-144)"><rect width="30" height="10" x="374.16" y="281.5" fill="none" clip-path="url(#clipPath2)" rx="4" ry="4"/></g><g fill="#F93" stroke="#F93" shape-rendering="geometricPrecision" text-rendering="geometricPrecision" transform="matrix(1,0,0,1,-352,-144)"><rect width="30" height="10" x="393.74" y="306.5" stroke="none" clip-path="url(#clipPath2)" rx="4" ry="4"/></g><g stroke-linecap="butt" stroke-miterlimit="1.45" shape-rendering="geometricPrecision" text-rendering="geometricPrecision" transform="matrix(1,0,0,1,-352,-144)"><rect width="30" height="10" x="393.74" y="306.5" fill="none" clip-path="url(#clipPath2)" rx="4" ry="4"/></g><g fill="#F93" stroke="#F93" shape-rendering="geometricPrecision" text-rendering="geometricPrecision" transform="matrix(1,0,0,1,-352,-144)"><rect width="30" height="10" x="411.324" y="281.5" stroke="none" clip-path="url(#clipPath2)" rx="4" ry="4"/></g><g stroke-linecap="butt" stroke-miterlimit="1.45" shape-rendering="geometricPrecision" text-rendering="geometricPrecision" transform="matrix(1,0,0,1,-352,-144)"><rect width="30" height="10" x="411.324" y="281.5" fill="none" clip-path="url(#clipPath2)" rx="4" ry="4"/></g><g fill="#F93" stroke="#F93" shape-rendering="geometricPrecision" text-rendering="geometricPrecision" transform="matrix(1,0,0,1,-352,-144)"><rect width="30" height="10" x="393.74" y="256.5" stroke="none" clip-path="url(#clipPath2)" rx="4" ry="4"/></g><g stroke-linecap="butt" stroke-miterlimit="1.45" shape-rendering="geometricPrecision" text-rendering="geometricPrecision" transform="matrix(1,0,0,1,-352,-144)"><rect width="30" height="10" x="393.74" y="256.5" fill="none" clip-path="url(#clipPath2)" rx="4" ry="4"/></g><g fill="#F93" stroke="#F93" shape-rendering="geometricPrecision" text-rendering="geometricPrecision" transform="matrix(1,0,0,1,-352,-144)"><rect width="30" height="10" x="473.162" y="282" stroke="none" clip-path="url(#clipPath2)" rx="4" ry="4"/></g><g stroke-linecap="butt" stroke-miterlimit="1.45" shape-rendering="geometricPrecision" text-rendering="geometricPrecision" transform="matrix(1,0,0,1,-352,-144)"><rect width="30" height="10" x="473.162" y="282" fill="none" clip-path="url(#clipPath2)" rx="4" ry="4"/></g><g fill="#F93" stroke="#F93" shape-rendering="geometricPrecision" text-rendering="geometricPrecision" transform="matrix(1,0,0,1,-352,-144)"><rect width="30" height="10" x="492.742" y="307" stroke="none" clip-path="url(#clipPath2)" rx="4" ry="4"/></g><g stroke-linecap="butt" stroke-miterlimit="1.45" shape-rendering="geometricPrecision" text-rendering="geometricPrecision" transform="matrix(1,0,0,1,-352,-144)"><rect width="30" height="10" x="492.742" y="307" fill="none" clip-path="url(#clipPath2)" rx="4" ry="4"/></g><g fill="#F93" stroke="#F93" shape-rendering="geometricPrecision" text-rendering="geometricPrecision" transform="matrix(1,0,0,1,-352,-144)"><rect width="30" height="10" x="510.326" y="282" stroke="none" clip-path="url(#clipPath2)" rx="4" ry="4"/></g><g stroke-linecap="butt" stroke-miterlimit="1.45" shape-rendering="geometricPrecision" text-rendering="geometricPrecision" transform="matrix(1,0,0,1,-352,-144)"><rect width="30" height="10" x="510.326" y="282" fill="none" clip-path="url(#clipPath2)" rx="4" ry="4"/></g><g fill="#F93" stroke="#F93" shape-rendering="geometricPrecision" text-rendering="geometricPrecision" transform="matrix(1,0,0,1,-352,-144)"><rect width="30" height="10" x="492.742" y="257" stroke="none" clip-path="url(#clipPath2)" rx="4" ry="4"/></g><g stroke-linecap="butt" stroke-miterlimit="1.45" shape-rendering="geometricPrecision" text-rendering="geometricPrecision" transform="matrix(1,0,0,1,-352,-144)"><rect width="30" height="10" x="492.742" y="257" fill="none" clip-path="url(#clipPath2)" rx="4" ry="4"/></g><g fill="#F93" stroke="#F93" shape-rendering="geometricPrecision" text-rendering="geometricPrecision" transform="matrix(1,0,0,1,-352,-144)"><rect width="30" height="10" x="573.162" y="282" stroke="none" clip-path="url(#clipPath2)" rx="4" ry="4"/></g><g stroke-linecap="butt" stroke-miterlimit="1.45" shape-rendering="geometricPrecision" text-rendering="geometricPrecision" transform="matrix(1,0,0,1,-352,-144)"><rect width="30" height="10" x="573.162" y="282" fill="none" clip-path="url(#clipPath2)" rx="4" ry="4"/></g><g fill="#F93" stroke="#F93" shape-rendering="geometricPrecision" text-rendering="geometricPrecision" transform="matrix(1,0,0,1,-352,-144)"><rect width="30" height="10" x="592.742" y="307" stroke="none" clip-path="url(#clipPath2)" rx="4" ry="4"/></g><g stroke-linecap="butt" stroke-miterlimit="1.45" shape-rendering="geometricPrecision" text-rendering="geometricPrecision" transform="matrix(1,0,0,1,-352,-144)"><rect width="30" height="10" x="592.742" y="307" fill="none" clip-path="url(#clipPath2)" rx="4" ry="4"/></g><g fill="#F93" stroke="#F93" shape-rendering="geometricPrecision" text-rendering="geometricPrecision" transform="matrix(1,0,0,1,-352,-144)"><rect width="30" height="10" x="610.326" y="282" stroke="none" clip-path="url(#clipPath2)" rx="4" ry="4"/></g><g stroke-linecap="butt" stroke-miterlimit="1.45" shape-rendering="geometricPrecision" text-rendering="geometricPrecision" transform="matrix(1,0,0,1,-352,-144)"><rect width="30" height="10" x="610.326" y="282" fill="none" clip-path="url(#clipPath2)" rx="4" ry="4"/></g><g fill="#F93" stroke="#F93" shape-rendering="geometricPrecision" text-rendering="geometricPrecision" transform="matrix(1,0,0,1,-352,-144)"><rect width="30" height="10" x="592.742" y="257" stroke="none" clip-path="url(#clipPath2)" rx="4" ry="4"/></g><g stroke-linecap="butt" stroke-miterlimit="1.45" shape-rendering="geometricPrecision" text-rendering="geometricPrecision" transform="matrix(1,0,0,1,-352,-144)"><rect width="30" height="10" x="592.742" y="257" fill="none" clip-path="url(#clipPath2)" rx="4" ry="4"/></g><g fill="#F93" stroke="#F93" shape-rendering="geometricPrecision" text-rendering="geometricPrecision" transform="matrix(1,0,0,1,-352,-144)"><rect width="30" height="10" x="674.16" y="282" stroke="none" clip-path="url(#clipPath2)" rx="4" ry="4"/></g><g stroke-linecap="butt" stroke-miterlimit="1.45" shape-rendering="geometricPrecision" text-rendering="geometricPrecision" transform="matrix(1,0,0,1,-352,-144)"><rect width="30" height="10" x="674.16" y="282" fill="none" clip-path="url(#clipPath2)" rx="4" ry="4"/></g><g fill="#F93" stroke="#F93" shape-rendering="geometricPrecision" text-rendering="geometricPrecision" transform="matrix(1,0,0,1,-352,-144)"><rect width="30" height="10" x="693.74" y="307" stroke="none" clip-path="url(#clipPath2)" rx="4" ry="4"/></g><g stroke-linecap="butt" stroke-miterlimit="1.45" shape-rendering="geometricPrecision" text-rendering="geometricPrecision" transform="matrix(1,0,0,1,-352,-144)"><rect width="30" height="10" x="693.74" y="307" fill="none" clip-path="url(#clipPath2)" rx="4" ry="4"/></g><g fill="#F93" stroke="#F93" shape-rendering="geometricPrecision" text-rendering="geometricPrecision" transform="matrix(1,0,0,1,-352,-144)"><rect width="30" height="10" x="711.324" y="282" stroke="none" clip-path="url(#clipPath2)" rx="4" ry="4"/></g><g stroke-linecap="butt" stroke-miterlimit="1.45" shape-rendering="geometricPrecision" text-rendering="geometricPrecision" transform="matrix(1,0,0,1,-352,-144)"><rect width="30" height="10" x="711.324" y="282" fill="none" clip-path="url(#clipPath2)" rx="4" ry="4"/></g><g fill="#F93" stroke="#F93" shape-rendering="geometricPrecision" text-rendering="geometricPrecision" transform="matrix(1,0,0,1,-352,-144)"><rect width="30" height="10" x="693.74" y="257" stroke="none" clip-path="url(#clipPath2)" rx="4" ry="4"/></g><g stroke-linecap="butt" stroke-miterlimit="1.45" shape-rendering="geometricPrecision" text-rendering="geometricPrecision" transform="matrix(1,0,0,1,-352,-144)"><rect width="30" height="10" x="693.74" y="257" fill="none" clip-path="url(#clipPath2)" rx="4" ry="4"/></g><g fill="#9CF" stroke="#9CF" shape-rendering="geometricPrecision" text-rendering="geometricPrecision" transform="matrix(1,0,0,1,-352,-144)"><rect width="380" height="30" x="367.742" y="159.5" stroke="none" clip-path="url(#clipPath2)"/></g><g stroke-linecap="butt" stroke-miterlimit="1.45" font-family="sans-serif" shape-rendering="geometricPrecision" text-rendering="geometricPrecision" transform="matrix(1,0,0,1,-352,-144)"><text x="473.516" y="179.214" stroke="none" clip-path="url(#clipPath2)" xml:space="preserve">Parameter Server: W = Σ W</text><rect width="380" height="30" x="367.742" y="159.5" fill="none" clip-path="url(#clipPath2)"/><text x="380.311" y="238.143" stroke="none" clip-path="url(#clipPath2)" font-size="8" xml:space="preserve">i</text><text x="445.415" y="217.143" stroke="none" clip-path="url(#clipPath2)" font-size="8" xml:space="preserve">i+1,1</text><text x="480.311" y="238.143" stroke="none" clip-path="url(#clipPath2)" font-size="8" xml:space="preserve">i</text><text x="580.311" y="238.143" stroke="none" clip-path="url(#clipPath2)" font-size="8" xml:space="preserve">i</text><text x="680.311" y="238.143" stroke="none" clip-path="url(#clipPath2)" font-size="8" xml:space="preserve">i</text><text x="545.415" y="217.143" stroke="none" clip-path="url(#clipPath2)" font-size="8" xml:space="preserve">i+1,2</text><text x="645.415" y="217.143" stroke="none" clip-path="url(#clipPath2)" font-size="8" xml:space="preserve">i+1,3</text><text x="745.415" y="217.143" stroke="none" clip-path="url(#clipPath2)" font-size="8" xml:space="preserve">i+1,4</text><text x="585.751" y="183.143" stroke="none" clip-path="url(#clipPath2)" font-size="8" xml:space="preserve">i+1</text><text x="620.113" y="184.357" stroke="none" clip-path="url(#clipPath2)" font-size="6" xml:space="preserve">j=1</text><text x="621.532" y="169.357" stroke="none" clip-path="url(#clipPath2)" font-size="6" xml:space="preserve">4</text><text x="641.751" y="183.143" stroke="none" clip-path="url(#clipPath2)" font-size="8" xml:space="preserve">i+1,j</text><text x="609.975" y="183.143" stroke="none" clip-path="url(#clipPath2)" font-size="8" xml:space="preserve">4</text><text x="609.975" y="173.143" stroke="none" clip-path="url(#clipPath2)" font-size="8" xml:space="preserve">1</text><text x="609.975" y="174.143" stroke="none" clip-path="url(#clipPath2)" font-size="8" xml:space="preserve">_</text><path fill="none" d="M404.8202 306.4951 L395.572 294.687" clip-path="url(#clipPath2)"/><path stroke="none" d="M393.1056 291.5378 L393.3148 301.5356 L396.1886 295.4742 L402.7621 294.1364 Z" clip-path="url(#clipPath2)"/><path fill="none" d="M412.2602 306.4951 L420.4794 294.8096" clip-path="url(#clipPath2)"/><path stroke="none" d="M422.7806 291.5378 L413.2705 294.6295 L419.9041 295.6275 L423.0858 301.5332 Z" clip-path="url(#clipPath2)"/><path fill="none" d="M393.0798 281.4951 L402.328 269.687" clip-path="url(#clipPath2)"/><path stroke="none" d="M404.7944 266.5378 L395.1379 269.1364 L401.7114 270.4742 L404.5852 276.5356 Z" clip-path="url(#clipPath2)"/><path fill="none" d="M422.8038 281.4951 L414.5846 269.8096" clip-path="url(#clipPath2)"/><path stroke="none" d="M412.2834 266.5378 L411.9782 276.5332 L415.1599 270.6275 L421.7935 269.6295 Z" clip-path="url(#clipPath2)"/><path fill="none" d="M503.8222 306.9951 L494.574 295.187" clip-path="url(#clipPath2)"/><path stroke="none" d="M492.1076 292.0378 L492.3167 302.0356 L495.1906 295.9742 L501.7641 294.6365 Z" clip-path="url(#clipPath2)"/><path fill="none" d="M511.2622 306.9951 L519.4814 295.3096" clip-path="url(#clipPath2)"/><path stroke="none" d="M521.7826 292.0378 L512.2725 295.1295 L518.9061 296.1275 L522.0878 302.0332 Z" clip-path="url(#clipPath2)"/><path fill="none" d="M492.0818 281.9951 L501.33 270.187" clip-path="url(#clipPath2)"/><path stroke="none" d="M503.7964 267.0378 L494.1399 269.6365 L500.7134 270.9742 L503.5873 277.0356 Z" clip-path="url(#clipPath2)"/><path fill="none" d="M521.8058 281.9951 L513.5866 270.3096" clip-path="url(#clipPath2)"/><path stroke="none" d="M511.2854 267.0378 L510.9802 277.0332 L514.1619 271.1275 L520.7955 270.1295 Z" clip-path="url(#clipPath2)"/><path fill="none" d="M603.8222 306.9951 L594.574 295.187" clip-path="url(#clipPath2)"/><path stroke="none" d="M592.1076 292.0379 L592.3168 302.0357 L595.1906 295.9742 L601.7641 294.6364 Z" clip-path="url(#clipPath2)"/><path fill="none" d="M611.2622 306.9951 L619.4814 295.3096" clip-path="url(#clipPath2)"/><path stroke="none" d="M621.7826 292.0378 L612.2725 295.1295 L618.9061 296.1275 L622.0878 302.0332 Z" clip-path="url(#clipPath2)"/><path fill="none" d="M592.0818 281.9951 L601.33 270.187" clip-path="url(#clipPath2)"/><path stroke="none" d="M603.7964 267.0379 L594.1399 269.6364 L600.7134 270.9742 L603.5872 277.0357 Z" clip-path="url(#clipPath2)"/><path fill="none" d="M621.8058 281.9951 L613.5866 270.3096" clip-path="url(#clipPath2)"/><path stroke="none" d="M611.2854 267.0378 L610.9802 277.0332 L614.1619 271.1275 L620.7955 270.1295 Z" clip-path="url(#clipPath2)"/><path fill="none" d="M704.8202 306.9951 L695.572 295.187" clip-path="url(#clipPath2)"/><path stroke="none" d="M693.1057 292.0378 L693.3148 302.0356 L696.1886 295.9742 L702.7621 294.6365 Z" clip-path="url(#clipPath2)"/><path fill="none" d="M712.2603 306.9951 L720.4794 295.3096" clip-path="url(#clipPath2)"/><path stroke="none" d="M722.7806 292.0378 L713.2705 295.1295 L719.9041 296.1275 L723.0858 302.0332 Z" clip-path="url(#clipPath2)"/><path fill="none" d="M693.0798 281.9951 L702.328 270.187" clip-path="url(#clipPath2)"/><path stroke="none" d="M704.7944 267.0378 L695.1379 269.6365 L701.7114 270.9742 L704.5853 277.0356 Z" clip-path="url(#clipPath2)"/><path fill="none" d="M722.8038 281.9951 L714.5847 270.3096" clip-path="url(#clipPath2)"/><path stroke="none" d="M712.2834 267.0379 L711.9783 277.0332 L715.16 271.1275 L721.7935 270.1295 Z" clip-path="url(#clipPath2)"/><path fill="none" d="M387.742 189.5222 L387.742 241.5264" clip-path="url(#clipPath2)"/><path stroke="none" d="M387.742 249.5264 L392.742 237.5264 L387.742 240.5264 L382.742 237.5264 Z" clip-path="url(#clipPath2)"/><text x="369.416" y="234.738" stroke="none" clip-path="url(#clipPath2)" xml:space="preserve">W</text><path fill="none" d="M427.742 249.5191 L427.742 197.5149" clip-path="url(#clipPath2)"/><path stroke="none" d="M427.742 189.5149 L422.742 201.5149 L427.742 198.5149 L432.742 201.5149 Z" clip-path="url(#clipPath2)"/><text x="434.742" y="213.69" stroke="none" clip-path="url(#clipPath2)" xml:space="preserve">W</text><path fill="none" d="M488.162 189.4722 L488.162 241.5164" clip-path="url(#clipPath2)"/><path stroke="none" d="M488.162 249.5164 L493.162 237.5164 L488.162 240.5164 L483.162 237.5164 Z" clip-path="url(#clipPath2)"/><text x="469.836" y="234.738" stroke="none" clip-path="url(#clipPath2)" xml:space="preserve">W</text><path fill="none" d="M528.162 249.5146 L528.162 197.481" clip-path="url(#clipPath2)"/><path stroke="none" d="M528.162 189.481 L523.162 201.481 L528.162 198.481 L533.162 201.481 Z" clip-path="url(#clipPath2)"/><text x="535.162" y="213.69" stroke="none" clip-path="url(#clipPath2)" xml:space="preserve">W</text><path fill="none" d="M588.162 189.4802 L588.162 241.518" clip-path="url(#clipPath2)"/><path stroke="none" d="M588.162 249.518 L593.162 237.518 L588.162 240.518 L583.162 237.518 Z" clip-path="url(#clipPath2)"/><text x="569.836" y="234.738" stroke="none" clip-path="url(#clipPath2)" xml:space="preserve">W</text><path fill="none" d="M628.162 249.5146 L628.162 197.481" clip-path="url(#clipPath2)"/><path stroke="none" d="M628.162 189.481 L623.162 201.481 L628.162 198.481 L633.162 201.481 Z" clip-path="url(#clipPath2)"/><text x="635.162" y="213.69" stroke="none" clip-path="url(#clipPath2)" xml:space="preserve">W</text><path fill="none" d="M687.742 189.4924 L687.742 241.5205" clip-path="url(#clipPath2)"/><path stroke="none" d="M687.742 249.5205 L692.742 237.5205 L687.742 240.5205 L682.742 237.5205 Z" clip-path="url(#clipPath2)"/><text x="669.416" y="234.738" stroke="none" clip-path="url(#clipPath2)" xml:space="preserve">W</text><path fill="none" d="M727.742 249.5268 L727.742 197.524" clip-path="url(#clipPath2)"/><path stroke="none" d="M727.742 189.524 L722.742 201.524 L727.742 198.524 L732.742 201.524 Z" clip-path="url(#clipPath2)"/><text x="734.742" y="213.69" stroke="none" clip-path="url(#clipPath2)" xml:space="preserve">W</text></g></g></svg>