<svg xmlns="http://www.w3.org/2000/svg" xmlns:xlink="http://www.w3.org/1999/xlink" width="721pt" height="485pt" viewBox="0 0 721 484.74"><g id="graph0" class="graph" transform="scale(1 1) rotate(0) translate(4 480.7351)"><title>%3</title><polygon fill="#fff" stroke="transparent" points="-4 4 -4 -480.735 717 -480.735 717 4 -4 4"/><g id="clust1" class="cluster"><title>cluster_0</title><polygon fill="none" stroke="#000" points="126 -379.823 126 -468.735 705 -468.735 705 -379.823 126 -379.823"/><text x="415.5" y="-453.535" fill="#000" font-family="Times,serif" font-size="14" text-anchor="middle">Collection of Files or Input Streams</text></g><g id="clust2" class="cluster"><title>cluster_2</title><polygon fill="none" stroke="#000" points="77 -268.912 77 -371.823 269 -371.823 269 -268.912 77 -268.912"/><text x="173" y="-356.623" fill="#000" font-family="Times,serif" font-size="14" text-anchor="middle">DataVec</text><text x="173" y="-342.623" fill="#000" font-family="Times,serif" font-size="14" text-anchor="middle">Transform Process</text></g><g id="clust3" class="cluster"><title>cluster_3</title><polygon fill="none" stroke="#000" points="395 -268.912 395 -357.823 693 -357.823 693 -268.912 395 -268.912"/><text x="544" y="-342.623" fill="#000" font-family="Times,serif" font-size="14" text-anchor="middle">Label Generators</text></g><g id="clust4" class="cluster"><title>cluster_4</title><polygon fill="none" stroke="#000" points="69 -172 69 -260.912 673 -260.912 673 -172 69 -172"/><text x="371" y="-245.712" fill="#000" font-family="Times,serif" font-size="14" text-anchor="middle">DataVec Record Readers</text></g><g id="clust5" class="cluster"><title>cluster_5</title><polygon fill="none" stroke="#000" points="210 -90 210 -164 456 -164 456 -90 210 -90"/><text x="333" y="-148.8" fill="#000" font-family="Times,serif" font-size="14" text-anchor="middle">Convert to INDArray</text></g><g id="clust6" class="cluster"><title>cluster_6</title><polygon fill="none" stroke="#000" points="8 -8 8 -82 660 -82 660 -8 8 -8"/><text x="334" y="-66.8" fill="#000" font-family="Times,serif" font-size="14" text-anchor="middle">ND4J Pre-Processor</text></g><g id="node1" class="node"><title>Data.CSV</title><ellipse cx="180" cy="-413.279" fill="none" stroke="#000" rx="46.431" ry="18"/><text x="180" y="-409.079" fill="#000" font-family="Times,serif" font-size="14" text-anchor="middle">Data.CSV</text></g><g id="node5" class="node"><title>DataVec\n Transform Process</title><ellipse cx="173" cy="-302.368" fill="none" stroke="#000" rx="87.548" ry="25.412"/><text x="173" y="-305.168" fill="#000" font-family="Times,serif" font-size="14" text-anchor="middle">DataVec</text><text x="173" y="-291.168" fill="#000" font-family="Times,serif" font-size="14" text-anchor="middle">Transform Process</text></g><g id="edge1" class="edge"><title>Data.CSV-&gt;DataVec\n Transform Process</title><path fill="none" stroke="#000" d="M178.8441,-394.9644C177.8743,-379.5979 176.46,-357.1901 175.2657,-338.2667"/><polygon fill="#000" stroke="#000" points="178.752 -337.939 174.629 -328.179 171.766 -338.38 178.752 -337.939"/></g><g id="node8" class="node"><title>CSV\nRecordReader</title><ellipse cx="289" cy="-205.456" fill="none" stroke="#000" rx="67.863" ry="25.412"/><text x="289" y="-208.256" fill="#000" font-family="Times,serif" font-size="14" text-anchor="middle">CSV</text><text x="289" y="-194.256" fill="#000" font-family="Times,serif" font-size="14" text-anchor="middle">RecordReader</text></g><g id="edge5" class="edge"><title>Data.CSV-&gt;CSV\nRecordReader</title><path fill="none" stroke="#000" d="M202.1088,-397.4621C211.8071,-391.1626 223.5693,-384.3492 235,-379.8234 251.0471,-373.4698 261.4957,-384.6891 273,-371.8234 304.6458,-336.4325 302.3758,-278.3214 296.6164,-240.9891"/><polygon fill="#000" stroke="#000" points="300.053 -240.318 294.925 -231.047 293.152 -241.492 300.053 -240.318"/></g><g id="node2" class="node"><title>video.mov</title><ellipse cx="292" cy="-413.279" fill="none" stroke="#000" rx="47.875" ry="18"/><text x="292" y="-409.079" fill="#000" font-family="Times,serif" font-size="14" text-anchor="middle">video.mov</text></g><g id="node10" class="node"><title>Video\nRecordReader</title><ellipse cx="443" cy="-205.456" fill="none" stroke="#000" rx="67.863" ry="25.412"/><text x="443" y="-208.256" fill="#000" font-family="Times,serif" font-size="14" text-anchor="middle">Video</text><text x="443" y="-194.256" fill="#000" font-family="Times,serif" font-size="14" text-anchor="middle">RecordReader</text></g><g id="edge8" class="edge"><title>video.mov-&gt;Video\nRecordReader</title><path fill="none" stroke="#000" d="M303.4158,-395.608C321.3724,-368.0525 357.6176,-313.394 391,-268.9117 398.7478,-258.5877 407.5266,-247.621 415.6356,-237.7604"/><polygon fill="#000" stroke="#000" points="418.566 -239.709 422.252 -229.776 413.177 -235.243 418.566 -239.709"/></g><g id="node3" class="node"><title>Directory of\n Labelled Images</title><ellipse cx="618" cy="-413.279" fill="none" stroke="#000" rx="79.458" ry="25.412"/><text x="618" y="-416.079" fill="#000" font-family="Times,serif" font-size="14" text-anchor="middle">Directory of</text><text x="618" y="-402.079" fill="#000" font-family="Times,serif" font-size="14" text-anchor="middle">Labelled Images</text></g><g id="node6" class="node"><title>Parent Path\n Label Generator</title><ellipse cx="607" cy="-302.368" fill="none" stroke="#000" rx="78.245" ry="25.412"/><text x="607" y="-305.168" fill="#000" font-family="Times,serif" font-size="14" text-anchor="middle">Parent Path</text><text x="607" y="-291.168" fill="#000" font-family="Times,serif" font-size="14" text-anchor="middle">Label Generator</text></g><g id="edge3" class="edge"><title>Directory of\n Labelled Images-&gt;Parent Path\n Label Generator</title><path fill="none" stroke="#000" d="M615.4764,-387.8338C614.0195,-373.1442 612.1639,-354.4343 610.5605,-338.2675"/><polygon fill="#000" stroke="#000" points="614.02 -337.684 609.55 -328.079 607.054 -338.375 614.02 -337.684"/></g><g id="node4" class="node"><title>Directory of Images</title><ellipse cx="439" cy="-413.279" fill="none" stroke="#000" rx="81.134" ry="18"/><text x="439" y="-409.079" fill="#000" font-family="Times,serif" font-size="14" text-anchor="middle">Directory of Images</text></g><g id="edge2" class="edge"><title>Directory of Images-&gt;DataVec\n Transform Process</title><path fill="none" stroke="#000" d="M400.6054,-397.2702C356.5861,-378.9158 283.9,-348.6085 232.5271,-327.188"/><polygon fill="#000" stroke="#000" points="233.771 -323.915 223.194 -323.297 231.077 -330.376 233.771 -323.915"/></g><g id="node7" class="node"><title>Path Label\n Generator</title><ellipse cx="457" cy="-302.368" fill="none" stroke="#000" rx="53.846" ry="25.412"/><text x="457" y="-305.168" fill="#000" font-family="Times,serif" font-size="14" text-anchor="middle">Path Label</text><text x="457" y="-291.168" fill="#000" font-family="Times,serif" font-size="14" text-anchor="middle">Generator</text></g><g id="edge4" class="edge"><title>Directory of Images-&gt;Path Label\n Generator</title><path fill="none" stroke="#000" d="M441.9723,-394.9644C444.483,-379.4941 448.152,-356.887 451.2361,-337.8836"/><polygon fill="#000" stroke="#000" points="454.731 -338.197 452.878 -327.765 447.821 -337.075 454.731 -338.197"/></g><g id="node11" class="node"><title>Record Reader</title><ellipse cx="140" cy="-205.456" fill="none" stroke="#000" rx="62.791" ry="18"/><text x="140" y="-201.256" fill="#000" font-family="Times,serif" font-size="14" text-anchor="middle">Record Reader</text></g><g id="edge9" class="edge"><title>DataVec\n Transform Process-&gt;Record Reader</title><path fill="none" stroke="#000" d="M164.3296,-276.9051C159.7197,-263.3669 154.0482,-246.7113 149.341,-232.8877"/><polygon fill="#000" stroke="#000" points="152.649 -231.745 146.113 -223.407 146.023 -234.002 152.649 -231.745"/></g><g id="node9" class="node"><title>Image\nRecordReader</title><ellipse cx="597" cy="-205.456" fill="none" stroke="#000" rx="67.863" ry="25.412"/><text x="597" y="-208.256" fill="#000" font-family="Times,serif" font-size="14" text-anchor="middle">Image</text><text x="597" y="-194.256" fill="#000" font-family="Times,serif" font-size="14" text-anchor="middle">RecordReader</text></g><g id="edge6" class="edge"><title>Parent Path\n Label Generator-&gt;Image\nRecordReader</title><path fill="none" stroke="#000" d="M604.3726,-276.9051C603.2447,-265.9747 601.9072,-253.0121 600.683,-241.1486"/><polygon fill="#000" stroke="#000" points="604.153 -240.673 599.645 -231.085 597.189 -241.391 604.153 -240.673"/></g><g id="edge7" class="edge"><title>Path Label\n Generator-&gt;Image\nRecordReader</title><path fill="none" stroke="#000" d="M488.9009,-281.7495C498.915,-275.1775 509.9715,-267.818 520,-260.9117 532.4571,-252.3329 545.883,-242.7745 557.9805,-234.0427"/><polygon fill="#000" stroke="#000" points="560.069 -236.852 566.115 -228.152 555.963 -231.182 560.069 -236.852"/></g><g id="node12" class="node"><title>RecordReaderDataSetIterator</title><ellipse cx="333" cy="-116" fill="none" stroke="#000" rx="114.9" ry="18"/><text x="333" y="-111.8" fill="#000" font-family="Times,serif" font-size="14" text-anchor="middle">RecordReaderDataSetIterator</text></g><g id="edge11" class="edge"><title>CSV\nRecordReader-&gt;RecordReaderDataSetIterator</title><path fill="none" stroke="#000" d="M301.4909,-180.0607C307.1281,-168.5998 313.7967,-155.042 319.5441,-143.3569"/><polygon fill="#000" stroke="#000" points="322.839 -144.587 324.113 -134.069 316.558 -141.498 322.839 -144.587"/></g><g id="edge10" class="edge"><title>Image\nRecordReader-&gt;RecordReaderDataSetIterator</title><path fill="none" stroke="#000" d="M553.793,-185.6104C542.8688,-180.8905 531.0886,-176.053 520,-172 481.1585,-157.8031 436.8571,-144.4166 401.1263,-134.2938"/><polygon fill="#000" stroke="#000" points="401.861 -130.865 391.287 -131.527 399.967 -137.603 401.861 -130.865"/></g><g id="edge12" class="edge"><title>Video\nRecordReader-&gt;RecordReaderDataSetIterator</title><path fill="none" stroke="#000" d="M414.3859,-182.1859C398.5572,-169.3134 378.9072,-153.3334 362.8811,-140.3003"/><polygon fill="#000" stroke="#000" points="364.837 -137.38 354.87 -133.786 360.42 -142.81 364.837 -137.38"/></g><g id="edge13" class="edge"><title>Record Reader-&gt;RecordReaderDataSetIterator</title><path fill="none" stroke="#000" d="M172.9712,-190.1225C185.2245,-184.4274 199.2455,-177.9147 212,-172 236.6219,-160.5819 264.0721,-147.8758 286.5948,-137.4567"/><polygon fill="#000" stroke="#000" points="288.317 -140.517 295.923 -133.142 285.378 -134.163 288.317 -140.517"/></g><g id="node13" class="node"><title>ImagePreProcessingScaler</title><ellipse cx="548" cy="-34" fill="none" stroke="#000" rx="104.311" ry="18"/><text x="548" y="-29.8" fill="#000" font-family="Times,serif" font-size="14" text-anchor="middle">ImagePreProcessingScaler</text></g><g id="edge14" class="edge"><title>RecordReaderDataSetIterator-&gt;ImagePreProcessingScaler</title><path fill="none" stroke="#000" d="M383.6058,-99.7777C399.795,-94.3714 417.7333,-88.1529 434,-82 456.1079,-73.6376 480.2792,-63.5928 500.6526,-54.8581"/><polygon fill="#000" stroke="#000" points="502.226 -57.991 510.023 -50.819 499.455 -51.563 502.226 -57.991"/></g><g id="node14" class="node"><title>NormalizerStandardize</title><ellipse cx="333" cy="-34" fill="none" stroke="#000" rx="92.232" ry="18"/><text x="333" y="-29.8" fill="#000" font-family="Times,serif" font-size="14" text-anchor="middle">NormalizerStandardize</text></g><g id="edge15" class="edge"><title>RecordReaderDataSetIterator-&gt;NormalizerStandardize</title><path fill="none" stroke="#000" d="M333,-97.8015C333,-87.3976 333,-74.1215 333,-62.3768"/><polygon fill="#000" stroke="#000" points="336.5 -62.148 333 -52.148 329.5 -62.148 336.5 -62.148"/></g><g id="node15" class="node"><title>NormalizerMinMaxScaler</title><ellipse cx="119" cy="-34" fill="none" stroke="#000" rx="103.342" ry="18"/><text x="119" y="-29.8" fill="#000" font-family="Times,serif" font-size="14" text-anchor="middle">NormalizerMinMaxScaler</text></g><g id="edge16" class="edge"><title>RecordReaderDataSetIterator-&gt;NormalizerMinMaxScaler</title><path fill="none" stroke="#000" d="M282.3825,-99.8086C266.1927,-94.404 248.257,-88.1786 232,-82 210.0698,-73.6652 186.1083,-63.6242 165.9163,-54.885"/><polygon fill="#000" stroke="#000" points="167.195 -51.625 156.63 -50.843 164.402 -58.043 167.195 -51.625"/></g></g></svg>