<svg xmlns="http://www.w3.org/2000/svg" xmlns:xlink="http://www.w3.org/1999/xlink" width="248pt" height="344pt" viewBox="0 0 248 344"><g id="graph0" class="graph" transform="scale(1 1) rotate(0) translate(4 340)"><title>%3</title><polygon fill="#fff" stroke="transparent" points="-4 4 -4 -340 244 -340 244 4 -4 4"/><g id="clust1" class="cluster"><title>cluster_0</title><polygon fill="none" stroke="#000" points="65 -254 65 -328 175 -328 175 -254 65 -254"/><text x="120" y="-312.8" fill="#000" font-family="Times,serif" font-size="14" text-anchor="middle">Input</text></g><g id="clust2" class="cluster"><title>cluster_1</title><polygon fill="none" stroke="#000" points="27 -172 27 -246 213 -246 213 -172 27 -172"/><text x="120" y="-230.8" fill="#000" font-family="Times,serif" font-size="14" text-anchor="middle">Native Image Loader</text></g><g id="clust3" class="cluster"><title>cluster_2</title><polygon fill="none" stroke="#000" points="8 -90 8 -164 232 -164 232 -90 8 -90"/><text x="120" y="-148.8" fill="#000" font-family="Times,serif" font-size="14" text-anchor="middle">ND4j PreProcessing</text></g><g id="clust4" class="cluster"><title>cluster_3</title><polygon fill="none" stroke="#000" points="66 -8 66 -82 174 -82 174 -8 66 -8"/><text x="120" y="-66.8" fill="#000" font-family="Times,serif" font-size="14" text-anchor="middle">Model Inference</text></g><g id="node1" class="node"><title>image.png</title><ellipse cx="120" cy="-280" fill="none" stroke="#000" rx="47.382" ry="18"/><text x="120" y="-275.8" fill="#000" font-family="Times,serif" font-size="14" text-anchor="middle">image.png</text></g><g id="node2" class="node"><title>Native Image Loader</title><ellipse cx="120" cy="-198" fill="none" stroke="#000" rx="85.475" ry="18"/><text x="120" y="-193.8" fill="#000" font-family="Times,serif" font-size="14" text-anchor="middle">Native Image Loader</text></g><g id="edge1" class="edge"><title>image.png-&gt;Native Image Loader</title><path fill="none" stroke="#000" d="M120,-261.8015C120,-251.3976 120,-238.1215 120,-226.3768"/><polygon fill="#000" stroke="#000" points="123.5 -226.148 120 -216.148 116.5 -226.148 123.5 -226.148"/></g><g id="node3" class="node"><title>ImagePreProcessingScaler</title><ellipse cx="120" cy="-116" fill="none" stroke="#000" rx="104.311" ry="18"/><text x="120" y="-111.8" fill="#000" font-family="Times,serif" font-size="14" text-anchor="middle">ImagePreProcessingScaler</text></g><g id="edge2" class="edge"><title>Native Image Loader-&gt;ImagePreProcessingScaler</title><path fill="none" stroke="#000" d="M120,-179.8015C120,-169.3976 120,-156.1215 120,-144.3768"/><polygon fill="#000" stroke="#000" points="123.5 -144.148 120 -134.148 116.5 -144.148 123.5 -144.148"/></g><g id="node4" class="node"><title>Model.fit</title><ellipse cx="120" cy="-34" fill="none" stroke="#000" rx="42.565" ry="18"/><text x="120" y="-29.8" fill="#000" font-family="Times,serif" font-size="14" text-anchor="middle">Model.fit</text></g><g id="edge3" class="edge"><title>ImagePreProcessingScaler-&gt;Model.fit</title><path fill="none" stroke="#000" d="M120,-97.8015C120,-87.3976 120,-74.1215 120,-62.3768"/><polygon fill="#000" stroke="#000" points="123.5 -62.148 120 -52.148 116.5 -62.148 123.5 -62.148"/></g></g></svg>